<svg viewBox="0 0 560 560" fill="none" xmlns="http://www.w3.org/2000/svg">
<g clip-path="url(#clip0_401_2)">
<path d="M280 560C434.64 560 560 434.64 560 280C560 125.36 434.64 0 280 0C125.36 0 0 125.36 0 280C0 434.64 125.36 560 280 560Z" fill="white"/>
<path fill-rule="evenodd" clip-rule="evenodd" d="M434.578 268.555C431.06 269.342 428.645 269.798 426.283 270.427C411.495 274.295 396.603 277.357 381.203 276.78C360.623 275.993 342.947 267.715 327.355 254.38C321.055 248.973 315.21 243.005 309.19 237.265C306.267 234.5 305.567 231.35 307.79 227.745L313.478 218.523L321.16 226.957C332.237 239.243 344.085 250.425 359.712 256.393C375.06 262.238 390.688 261.38 406.385 258.737C428.575 255.027 449.068 246.155 469.158 236.197C469.823 235.865 470.557 235.655 472.5 234.885C471.17 237.387 470.435 238.875 469.595 240.275C440.265 289.59 410.935 338.905 381.57 388.203C377.965 394.258 376.617 394.712 370.353 391.65C328.948 371.315 285.582 367.448 240.817 375.148C233.817 376.355 232.575 375.76 229.232 368.585C225.575 360.745 225.61 360.955 233.887 359.363C256.952 354.857 280.568 353.895 303.923 356.51C325.78 358.96 347.568 362.18 367.622 372.47C370.492 373.958 372.015 372.715 373.45 370.335C386.173 349.09 398.895 327.845 411.688 306.635C418.53 295.277 425.513 284.007 432.39 272.685C432.985 271.705 433.457 270.672 434.578 268.555ZM125.632 270.673C128.572 275.625 131.513 280.578 134.487 285.513L193.357 383.163C196.157 387.818 196.158 387.957 191.31 390.18C180.863 394.992 182.157 396.235 175.77 385.542C153.195 347.655 130.655 309.732 108.115 271.827L89.845 241.115C88.97 239.662 88.27 238.087 87.5 236.565L88.1825 235.655C90.755 236.792 93.345 237.86 95.8825 239.05C111.335 246.277 126.963 252.997 143.518 257.092C164.763 262.378 185.745 262.99 205.993 252.893C218.592 246.61 228.97 237.353 238.315 226.8C253.277 209.86 265.422 190.855 276.43 171.045L279.108 166.25C280.56 168.42 281.488 170.065 282.66 171.5C289.118 179.41 287.595 186.445 282.152 194.635C270.007 212.905 257.775 231 241.605 245.84C227.15 259.105 210.945 269.115 191.905 273.682C176.96 277.27 161.945 276.552 146.948 273.77C140.088 272.493 133.263 271.058 126.42 269.693L125.632 270.673Z" fill="#0F1529"/>
</g>
<defs>
<clipPath id="clip0_401_2">
<rect width="560" height="560" fill="white"/>
</clipPath>
</defs>
</svg>
